<?xml version="1.0" encoding="UTF-8" standalone="no"?>
<!DOCTYPE svg PUBLIC "-//W3C//DTD SVG 1.1//EN" "http://www.w3.org/Graphics/SVG/1.1/DTD/svg11.dtd">
<svg version="1.1" xmlns="http://www.w3.org/2000/svg" xmlns:xlink="http://www.w3.org/1999/xlink" preserveAspectRatio="xMidYMid meet" viewBox="-0.9999999999999998 11.312783064626748 534 451.19000000000005" width="530" height="447.19"><defs><path d="M447.88 437.37L447.81 438.32L447.7 439.26L447.54 440.18L447.34 441.1L447.1 442L446.83 442.88L446.51 443.75L446.16 444.61L445.77 445.45L445.34 446.27L444.88 447.07L444.39 447.86L443.86 448.63L443.31 449.37L442.72 450.1L442.1 450.8L441.45 451.48L440.77 452.14L440.06 452.78L439.33 453.39L438.57 453.98L437.79 454.54L436.98 455.08L436.15 455.59L435.29 456.07L434.42 456.52L433.52 456.94L432.6 457.34L431.67 457.7L430.72 458.03L429.75 458.33L428.76 458.6L427.76 458.83L426.74 459.03L425.71 459.2L424.66 459.33L423.61 459.43L422.54 459.48L421.46 459.5L420.38 459.48L345.56 459.48L345.3 459.48L345.04 459.47L344.79 459.44L344.54 459.41L344.29 459.37L344.04 459.32L343.8 459.27L343.57 459.2L343.33 459.13L343.1 459.05L342.88 458.96L342.66 458.87L342.45 458.77L342.24 458.66L342.03 458.54L341.83 458.42L341.64 458.29L341.45 458.15L341.27 458.01L341.1 457.87L340.93 457.71L340.77 457.55L340.62 457.39L340.47 457.22L340.33 457.05L340.2 456.87L340.07 456.68L339.96 456.5L339.85 456.3L339.75 456.11L339.66 455.91L339.57 455.7L339.5 455.5L339.43 455.28L339.38 455.07L339.33 454.85L339.3 454.63L339.27 454.41L339.26 454.18L339.25 453.96L339.25 346.25L339.19 343.57L339 340.92L338.7 338.3L338.28 335.71L337.74 333.15L337.09 330.63L336.33 328.15L335.47 325.71L334.5 323.31L333.42 320.95L332.24 318.64L330.97 316.38L329.6 314.17L328.13 312.01L326.58 309.91L324.94 307.86L323.21 305.87L321.39 303.95L319.5 302.08L317.52 300.29L315.47 298.56L313.34 296.89L311.15 295.3L308.88 293.79L306.54 292.35L304.14 290.98L301.68 289.7L299.16 288.5L296.58 287.38L293.94 286.35L291.26 285.41L288.52 284.56L285.73 283.8L282.9 283.13L280.02 282.56L277.1 282.09L274.15 281.72L271.16 281.46L268.13 281.3L265.07 281.24L262.01 281.3L258.99 281.46L256 281.72L253.04 282.09L250.12 282.56L247.24 283.13L244.41 283.79L241.62 284.55L238.88 285.41L236.19 286.35L233.56 287.38L230.98 288.5L228.45 289.7L225.99 290.98L223.59 292.34L221.26 293.78L218.99 295.3L216.79 296.89L214.66 298.55L212.61 300.28L210.64 302.08L208.74 303.94L206.92 305.87L205.19 307.86L203.55 309.9L201.99 312.01L200.53 314.16L199.16 316.37L197.88 318.64L196.71 320.95L195.63 323.3L194.66 325.7L193.79 328.15L193.03 330.63L192.38 333.15L191.85 335.71L191.43 338.3L191.12 340.92L190.94 343.57L190.88 346.25L190.88 453.9L190.87 454.13L190.85 454.35L190.83 454.58L190.79 454.8L190.75 455.01L190.69 455.23L190.63 455.44L190.55 455.65L190.47 455.85L190.38 456.05L190.28 456.25L190.17 456.44L190.05 456.63L189.93 456.81L189.8 456.99L189.66 457.17L189.51 457.33L189.36 457.5L189.2 457.66L189.03 457.81L188.85 457.96L188.67 458.1L188.48 458.23L188.29 458.36L188.09 458.49L187.89 458.6L187.68 458.71L187.47 458.81L187.25 458.91L187.02 458.99L186.79 459.07L186.56 459.15L186.32 459.21L186.08 459.27L185.84 459.32L185.59 459.36L185.34 459.39L185.08 459.41L184.83 459.42L184.57 459.43L109.62 459.43L108.54 459.45L107.46 459.43L106.39 459.37L105.34 459.28L104.29 459.15L103.26 458.98L102.24 458.78L101.24 458.54L100.25 458.28L99.28 457.98L98.33 457.64L97.4 457.28L96.48 456.89L95.58 456.46L94.71 456.01L93.85 455.53L93.02 455.02L92.21 454.49L91.43 453.92L90.67 453.34L89.94 452.73L89.23 452.09L88.55 451.43L87.9 450.75L87.28 450.04L86.69 449.32L86.14 448.57L85.61 447.8L85.12 447.02L84.66 446.21L84.23 445.39L83.84 444.55L83.49 443.7L83.17 442.83L82.9 441.94L82.66 441.04L82.46 440.13L82.3 439.2L82.19 438.26L82.12 437.31L82.12 277.92L264.94 117.58L447.88 277.92L447.88 437.37ZM268.01 12.41L269.51 12.54L270.99 12.71L272.48 12.94L273.95 13.21L275.41 13.54L276.86 13.91L278.29 14.34L279.71 14.81L281.12 15.34L282.5 15.91L283.86 16.54L285.2 17.21L286.51 17.93L287.8 18.71L289.06 19.53L290.29 20.41L291.48 21.33L292.65 22.31L518.55 220.3L518.55 220.35L519.67 221.37L520.73 222.42L521.73 223.49L522.68 224.6L523.56 225.72L524.39 226.87L525.16 228.05L525.88 229.24L526.54 230.45L527.14 231.68L527.68 232.92L528.17 234.18L528.6 235.45L528.97 236.74L529.28 238.03L529.54 239.33L529.74 240.63L529.89 241.94L529.97 243.25L530 244.57L529.97 245.88L529.89 247.2L529.74 248.5L529.54 249.81L529.28 251.11L528.97 252.4L528.6 253.68L528.17 254.95L527.68 256.21L527.14 257.46L526.54 258.68L525.88 259.9L525.16 261.09L524.39 262.26L523.56 263.41L522.68 264.54L521.73 265.64L520.73 266.72L519.67 267.77L518.55 268.78L517.39 269.76L516.2 270.69L514.97 271.57L513.71 272.4L512.42 273.17L511.11 273.9L509.77 274.58L508.41 275.2L507.03 275.78L505.63 276.31L504.21 276.78L502.77 277.21L501.32 277.59L499.86 277.91L498.39 278.19L496.9 278.41L495.42 278.59L493.92 278.71L492.42 278.79L490.92 278.81L489.42 278.79L487.93 278.71L486.43 278.59L484.94 278.41L483.46 278.19L481.99 277.91L480.52 277.59L479.07 277.21L477.64 276.78L476.22 276.31L474.82 275.78L473.43 275.2L472.07 274.58L470.74 273.9L469.42 273.17L468.14 272.4L466.88 271.57L465.65 270.69L464.45 269.76L463.29 268.78L265.02 94.9L66.68 268.78L65.51 269.76L64.32 270.69L63.09 271.56L61.83 272.39L60.54 273.17L59.23 273.89L57.89 274.57L56.53 275.19L55.14 275.77L53.74 276.29L52.32 276.77L50.88 277.19L49.43 277.57L47.97 277.89L46.5 278.17L45.01 278.39L43.52 278.57L42.03 278.69L40.53 278.76L39.03 278.79L37.53 278.76L36.03 278.68L34.54 278.56L33.05 278.38L31.57 278.15L30.1 277.88L28.63 277.55L27.19 277.17L25.75 276.74L24.33 276.26L22.93 275.74L21.55 275.16L20.19 274.53L18.85 273.85L17.54 273.12L16.25 272.34L15 271.52L13.77 270.64L12.57 269.71L11.41 268.73L10.3 267.71L9.24 266.66L8.24 265.58L7.3 264.48L6.41 263.35L5.59 262.2L4.81 261.03L4.1 259.83L3.44 258.62L2.84 257.39L2.3 256.15L1.82 254.89L1.39 253.62L1.02 252.33L0.71 251.04L0.45 249.74L0.25 248.44L0.11 247.13L0.03 245.82L0 244.5L0.03 243.19L0.12 241.87L0.26 240.56L0.46 239.26L0.72 237.96L1.04 236.67L1.41 235.39L1.84 234.12L2.33 232.86L2.88 231.62L3.48 230.39L4.14 229.18L4.86 227.99L5.63 226.81L6.46 225.66L7.35 224.54L8.3 223.44L9.3 222.36L10.36 221.31L11.48 220.3L237.38 22.31L238.55 21.33L239.75 20.41L240.97 19.53L242.23 18.71L243.52 17.93L244.83 17.21L246.17 16.54L247.53 15.91L248.92 15.34L250.32 14.81L251.74 14.34L253.17 13.91L254.62 13.54L256.08 13.21L257.56 12.94L259.04 12.71L260.53 12.54L262.02 12.41L263.52 12.34L265.02 12.31L266.51 12.34L268.01 12.41Z" id="c1W8ekNV5"></path><path d="M396.82 269.35C402.34 269.35 406.82 273.82 406.82 279.35C406.82 315.38 406.82 413.47 406.82 449.5C406.82 455.03 402.34 459.5 396.82 459.5C344.25 459.5 196.53 459.5 143.95 459.5C138.43 459.5 133.95 455.03 133.95 449.5C133.95 413.47 133.95 315.38 133.95 279.35C133.95 273.82 138.43 269.35 143.95 269.35C196.53 269.35 344.25 269.35 396.82 269.35Z" id="aofpgYCDV"></path><path d="M267.28 298.82L269.01 298.92L270.73 299.08L272.44 299.27L274.15 299.51L275.84 299.79L277.52 300.11L279.18 300.47L280.84 300.87L282.48 301.31L284.1 301.79L285.72 302.32L287.31 302.88L288.89 303.48L290.45 304.12L292 304.79L293.53 305.51L295.03 306.26L296.52 307.05L297.99 307.88L299.44 308.74L300.86 309.64L302.27 310.58L303.65 311.55L305.01 312.56L306.34 313.6L307.65 314.67L308.94 315.78L310.19 316.92L311.42 318.1L312.63 319.31L313.8 320.55L314.95 321.82L316.07 323.13L317.16 324.47L318.21 325.83L319.24 327.23L320.23 328.66L321.19 330.12L351.56 377.49L351.93 378.08L352.29 378.68L352.64 379.28L352.98 379.88L353.32 380.49L353.64 381.1L353.95 381.72L354.25 382.34L354.54 382.97L354.82 383.6L355.09 384.23L355.35 384.87L355.6 385.5L355.84 386.15L356.06 386.79L356.28 387.44L356.49 388.1L356.68 388.75L356.87 389.41L357.04 390.07L357.21 390.73L357.36 391.4L357.51 392.07L357.64 392.74L357.76 393.42L357.87 394.09L357.97 394.77L358.06 395.45L358.14 396.13L358.2 396.82L358.26 397.5L358.31 398.19L358.34 398.88L358.36 399.57L358.38 400.26L358.38 400.96L358.37 401.65L358.35 402.35L358.32 403.05L358.28 403.74L358.22 404.44L358.16 405.14L358.08 405.83L358 406.52L357.9 407.21L357.79 407.89L357.67 408.57L357.55 409.25L357.41 409.93L357.26 410.6L357.1 411.27L356.92 411.93L356.74 412.59L356.55 413.25L356.35 413.91L356.14 414.56L355.91 415.2L355.68 415.85L355.44 416.49L355.18 417.12L354.92 417.75L354.65 418.38L354.36 419L354.07 419.62L353.76 420.23L353.45 420.84L353.13 421.45L352.79 422.05L352.45 422.64L352.09 423.23L351.73 423.81L351.36 424.39L350.97 424.97L350.58 425.54L350.18 426.1L349.77 426.66L349.34 427.21L348.91 427.76L348.47 428.3L348.02 428.83L347.56 429.36L347.1 429.88L346.62 430.39L346.14 430.89L345.66 431.39L345.16 431.87L344.66 432.35L344.15 432.82L343.64 433.28L343.12 433.73L342.59 434.17L342.06 434.6L341.51 435.02L340.97 435.44L340.42 435.84L339.86 436.24L339.29 436.62L338.72 437L338.14 437.37L337.56 437.73L336.97 438.08L336.38 438.42L335.78 438.75L335.18 439.07L334.57 439.38L333.95 439.68L333.33 439.97L332.71 440.25L332.07 440.53L331.44 440.79L330.8 441.04L330.15 441.28L329.5 441.52L328.85 441.74L328.19 441.95L327.53 442.15L326.86 442.34L326.19 442.53L325.51 442.7L324.83 442.86L324.59 442.91L324.35 442.97L324.11 443.02L323.87 443.07L323.62 443.12L323.38 443.16L323.14 443.21L322.9 443.25L322.66 443.3L322.42 443.34L322.18 443.38L321.94 443.42L321.69 443.45L321.45 443.49L321.21 443.53L320.97 443.56L320.73 443.59L320.49 443.62L320.24 443.65L320 443.68L319.76 443.71L319.52 443.73L319.28 443.76L319.04 443.78L318.79 443.8L318.55 443.82L318.31 443.84L318.07 443.86L317.83 443.87L317.58 443.89L317.34 443.9L317.1 443.91L316.86 443.92L316.62 443.93L316.38 443.94L316.13 443.94L315.89 443.95L315.65 443.95L315.41 443.95L315.17 443.95L314.72 443.95L314.28 443.94L313.84 443.93L313.39 443.92L312.95 443.9L312.51 443.87L312.07 443.84L311.63 443.81L311.19 443.77L310.74 443.72L310.3 443.68L309.86 443.62L309.43 443.57L308.99 443.5L308.55 443.44L308.11 443.37L307.67 443.29L307.24 443.21L306.8 443.12L306.37 443.03L305.93 442.94L305.5 442.84L305.07 442.74L304.63 442.63L304.2 442.52L303.77 442.4L303.34 442.28L302.91 442.15L302.49 442.02L302.06 441.89L301.63 441.75L301.21 441.61L300.79 441.46L300.36 441.3L299.94 441.15L299.52 440.98L299.1 440.82L298.68 440.65L298.27 440.47L297.85 440.29L296.24 439.6L294.61 438.94L292.97 438.32L291.33 437.74L289.67 437.19L288.01 436.67L286.33 436.2L284.65 435.75L282.96 435.34L281.27 434.97L279.57 434.63L277.86 434.32L276.15 434.05L274.44 433.82L272.72 433.62L271 433.45L269.28 433.33L267.55 433.23L265.82 433.17L264.1 433.15L262.37 433.16L260.64 433.21L258.92 433.29L257.19 433.4L255.47 433.56L253.75 433.74L252.04 433.96L250.32 434.22L248.62 434.51L246.91 434.84L245.22 435.2L243.53 435.6L241.84 436.03L240.17 436.5L238.5 437L236.84 437.54L235.19 438.11L233.55 438.72L231.92 439.36L230.3 440.04L229.73 440.29L229.09 440.57L228.44 440.83L227.79 441.09L227.14 441.33L226.49 441.56L225.83 441.79L225.17 442L224.51 442.2L223.85 442.39L223.19 442.57L222.52 442.74L221.85 442.9L221.18 443.04L220.51 443.18L219.83 443.3L219.16 443.42L218.48 443.52L217.8 443.61L217.13 443.69L216.44 443.76L215.76 443.82L215.08 443.87L214.4 443.91L213.71 443.93L213.03 443.95L212.34 443.95L211.66 443.95L210.97 443.93L210.29 443.9L209.6 443.86L208.91 443.81L208.23 443.75L207.54 443.68L206.85 443.59L206.17 443.5L205.48 443.39L204.8 443.27L204.11 443.15L203.43 443.01L202.75 442.86L202.07 442.69L201.39 442.52L200.72 442.34L200.05 442.15L199.38 441.95L198.73 441.73L198.07 441.51L197.42 441.28L196.78 441.04L196.14 440.78L195.5 440.52L194.87 440.25L194.24 439.97L193.62 439.68L193.01 439.37L192.4 439.06L191.79 438.74L191.19 438.41L190.6 438.07L190.01 437.72L189.43 437.36L188.85 437L188.28 436.62L187.72 436.23L187.16 435.84L186.61 435.43L186.06 435.02L185.52 434.6L184.99 434.16L184.46 433.72L183.94 433.27L183.42 432.81L182.92 432.35L182.41 431.87L181.92 431.38L181.43 430.89L180.95 430.39L180.48 429.88L180.01 429.36L179.55 428.83L179.1 428.29L178.66 427.75L178.23 427.21L177.81 426.65L177.4 426.1L177 425.53L176.6 424.96L176.22 424.39L175.85 423.81L175.48 423.22L175.13 422.63L174.79 422.04L174.45 421.44L174.13 420.84L173.82 420.23L173.51 419.61L173.22 419L172.93 418.37L172.66 417.75L172.4 417.12L172.14 416.48L171.9 415.84L171.67 415.2L171.44 414.55L171.23 413.9L171.03 413.25L170.84 412.59L170.66 411.93L170.48 411.26L170.32 410.59L170.17 409.92L170.04 409.24L169.91 408.57L169.79 407.89L169.68 407.2L169.59 406.51L169.5 405.82L169.42 405.13L169.36 404.44L169.31 403.74L169.26 403.04L169.23 402.34L169.21 401.65L169.2 400.95L169.21 400.26L169.22 399.57L169.24 398.88L169.28 398.19L169.32 397.5L169.38 396.81L169.45 396.13L169.53 395.45L169.61 394.77L169.71 394.09L169.83 393.41L169.95 392.74L170.08 392.07L170.22 391.4L170.38 390.73L170.54 390.07L170.71 389.41L170.9 388.75L171.1 388.09L171.3 387.44L171.52 386.79L171.75 386.15L171.99 385.5L172.24 384.86L172.49 384.23L172.76 383.6L173.04 382.97L173.33 382.34L173.64 381.72L173.95 381.1L174.27 380.49L174.6 379.88L174.94 379.28L175.29 378.68L175.66 378.08L176.03 377.49L206.39 330.12L207.35 328.66L208.35 327.23L209.37 325.83L210.43 324.47L211.52 323.13L212.63 321.82L213.78 320.55L214.96 319.31L216.16 318.1L217.39 316.92L218.65 315.78L219.93 314.67L221.24 313.6L222.57 312.56L223.93 311.55L225.31 310.58L226.72 309.64L228.14 308.74L229.59 307.88L231.06 307.05L232.55 306.26L234.06 305.51L235.58 304.79L237.13 304.12L238.69 303.48L240.27 302.88L241.87 302.32L243.48 301.79L245.1 301.31L246.75 300.87L248.4 300.47L250.07 300.11L251.75 299.79L253.44 299.51L255.14 299.27L256.85 299.08L258.57 298.92L260.3 298.82L262.04 298.75L263.79 298.73L265.54 298.75L267.28 298.82ZM383.67 292.84L385.07 292.96L386.47 293.13L387.85 293.37L389.23 293.66L390.59 294.01L391.93 294.42L393.26 294.89L394.56 295.42L395.85 296.01L397.11 296.67L398.35 297.38L399.57 298.15L400.76 298.99L400.76 298.99L401.91 299.88L403 300.82L404.05 301.8L405.04 302.81L405.98 303.87L406.87 304.97L407.71 306.1L408.49 307.26L409.22 308.46L409.91 309.68L410.53 310.94L411.11 312.22L411.63 313.53L412.11 314.86L412.52 316.21L412.89 317.58L413.2 318.98L413.46 320.38L413.66 321.81L413.81 323.24L413.91 324.69L413.95 326.15L413.94 327.62L413.88 329.09L413.76 330.57L413.58 332.05L413.35 333.53L413.07 335.01L412.73 336.49L412.34 337.96L411.89 339.43L411.38 340.89L410.82 342.35L410.2 343.79L409.53 345.22L408.8 346.63L408.02 348.03L407.18 349.41L406.28 350.77L405.33 352.11L404.69 352.95L404.04 353.76L403.38 354.56L402.7 355.34L402.01 356.1L401.31 356.83L400.59 357.55L399.86 358.25L399.12 358.93L398.36 359.58L397.6 360.22L396.82 360.84L396.03 361.44L395.24 362.01L394.43 362.57L393.62 363.1L392.79 363.62L391.96 364.11L391.12 364.58L390.28 365.04L389.42 365.47L388.56 365.88L387.7 366.26L386.83 366.63L385.95 366.97L385.07 367.3L384.18 367.6L383.3 367.88L382.4 368.14L381.51 368.37L380.61 368.59L379.71 368.78L378.81 368.95L377.9 369.1L377 369.22L376.1 369.32L375.19 369.4L374.29 369.46L373.39 369.5L372.49 369.51L371.97 369.5L371.45 369.49L370.94 369.47L370.43 369.45L369.91 369.41L369.4 369.37L368.89 369.32L368.38 369.26L367.87 369.2L367.36 369.13L366.86 369.05L366.35 368.96L365.85 368.86L365.35 368.76L364.85 368.65L364.35 368.53L363.86 368.4L363.36 368.27L362.87 368.12L362.38 367.97L361.9 367.81L361.41 367.65L360.93 367.47L360.45 367.29L359.97 367.1L359.5 366.9L359.02 366.69L358.56 366.48L358.09 366.26L357.63 366.03L357.17 365.79L356.71 365.54L356.25 365.29L355.8 365.02L355.36 364.75L354.91 364.47L354.47 364.18L354.04 363.89L353.6 363.58L353.17 363.27L352.03 362.38L350.93 361.45L349.89 360.47L348.9 359.45L347.96 358.4L347.07 357.3L346.23 356.17L345.45 355.01L344.71 353.81L344.03 352.59L343.4 351.33L342.83 350.05L342.3 348.74L341.83 347.41L341.41 346.06L341.05 344.68L340.74 343.29L340.48 341.88L340.27 340.46L340.12 339.03L340.03 337.58L339.98 336.12L339.99 334.65L340.06 333.18L340.18 331.7L340.35 330.22L340.58 328.74L340.87 327.26L341.21 325.78L341.6 324.31L342.05 322.84L342.56 321.38L343.12 319.92L343.73 318.48L344.41 317.05L345.13 315.64L345.92 314.24L346.76 312.86L347.66 311.5L348.61 310.16L349.61 308.85L350.65 307.6L351.73 306.39L352.84 305.23L353.98 304.12L355.15 303.06L356.34 302.05L357.57 301.08L358.82 300.17L360.09 299.31L361.39 298.51L362.7 297.75L364.04 297.04L365.38 296.39L366.75 295.79L368.13 295.25L369.52 294.75L370.92 294.31L372.32 293.93L373.74 293.6L375.15 293.32L376.58 293.1L378 292.94L379.42 292.83L380.84 292.77L382.26 292.78L383.67 292.84ZM168.08 253.32L168.79 253.36L169.51 253.41L170.22 253.47L170.93 253.55L171.65 253.65L172.36 253.76L173.07 253.89L173.78 254.04L174.49 254.19L175.2 254.37L175.91 254.56L176.61 254.77L177.32 254.99L178.02 255.23L178.72 255.48L179.42 255.75L180.12 256.03L180.81 256.33L181.5 256.65L182.19 256.98L182.88 257.33L183.56 257.69L184.2 258.05L184.84 258.42L185.47 258.8L186.1 259.2L186.71 259.6L187.32 260.02L187.92 260.45L188.52 260.89L189.1 261.34L189.68 261.8L190.25 262.27L190.81 262.76L191.36 263.25L191.91 263.76L192.45 264.27L192.97 264.79L193.49 265.33L194.01 265.87L194.51 266.43L195 266.99L195.48 267.57L195.96 268.15L196.42 268.74L196.88 269.34L197.32 269.95L197.76 270.57L198.19 271.2L198.6 271.83L199.01 272.48L199.4 273.13L199.79 273.79L200.16 274.46L200.53 275.13L200.88 275.82L201.23 276.51L201.56 277.21L201.88 277.91L202.19 278.63L202.49 279.35L202.77 280.07L203.05 280.8L203.31 281.54L203.56 282.28L203.79 283.01L204.02 283.76L204.23 284.5L204.42 285.24L204.6 285.99L204.77 286.74L204.93 287.49L205.08 288.24L205.21 288.99L205.32 289.74L205.43 290.49L205.52 291.24L205.6 291.99L205.66 292.74L205.72 293.49L205.75 294.24L205.78 294.99L205.79 295.74L205.79 296.49L205.78 297.24L205.75 297.98L205.71 298.72L205.66 299.47L205.59 300.21L205.51 300.94L205.42 301.68L205.31 302.41L205.19 303.14L205.06 303.87L204.92 304.59L204.76 305.31L204.59 306.03L204.4 306.75L204.2 307.46L203.99 308.16L203.77 308.87L203.53 309.56L203.26 310.29L202.99 311.01L202.7 311.71L202.4 312.41L202.08 313.1L201.76 313.78L201.42 314.45L201.07 315.11L200.71 315.75L200.33 316.39L199.95 317.02L199.55 317.63L199.14 318.24L198.72 318.83L198.29 319.42L197.85 319.99L197.39 320.55L196.93 321.1L196.46 321.64L195.97 322.17L195.47 322.68L194.97 323.18L194.45 323.68L193.92 324.15L193.39 324.62L192.84 325.08L192.28 325.52L191.72 325.95L191.14 326.36L190.55 326.77L189.96 327.16L189.36 327.53L188.74 327.9L188.12 328.25L187.49 328.58L186.85 328.91L186.2 329.22L185.55 329.51L184.88 329.79L184.21 330.06L183.93 330.17L183.65 330.27L183.38 330.37L183.1 330.46L182.82 330.56L182.54 330.65L182.26 330.74L181.98 330.82L181.7 330.91L181.42 330.99L181.14 331.06L180.86 331.14L180.58 331.21L180.29 331.28L180.01 331.35L179.73 331.41L179.45 331.47L179.16 331.53L178.88 331.59L178.6 331.64L178.31 331.69L178.03 331.74L177.75 331.79L177.46 331.83L177.18 331.87L176.89 331.91L176.61 331.94L176.32 331.97L176.04 332L175.75 332.03L175.47 332.05L175.18 332.07L174.9 332.09L174.61 332.11L174.33 332.12L174.04 332.14L173.76 332.14L173.47 332.15L173.19 332.16L172.9 332.16L171.78 332.14L170.67 332.08L169.55 331.98L168.44 331.85L167.34 331.68L166.23 331.47L165.14 331.23L164.05 330.95L162.96 330.63L161.88 330.28L160.82 329.9L159.76 329.48L158.71 329.03L157.67 328.54L156.64 328.02L155.63 327.47L154.62 326.88L153.64 326.26L152.66 325.61L151.7 324.93L150.76 324.22L149.84 323.48L148.93 322.71L148.04 321.91L147.17 321.08L146.32 320.22L145.49 319.34L144.68 318.42L143.89 317.48L143.13 316.51L142.39 315.52L141.68 314.49L140.99 313.45L140.33 312.37L139.69 311.27L139.08 310.15L138.5 309L137.95 307.83L137.43 306.64L136.94 305.42L136.38 303.87L135.88 302.32L135.43 300.76L135.05 299.2L134.72 297.64L134.46 296.09L134.25 294.53L134.09 292.98L134 291.44L133.95 289.9L133.97 288.37L134.03 286.86L134.15 285.35L134.33 283.87L134.55 282.39L134.83 280.94L135.16 279.5L135.54 278.08L135.97 276.69L136.45 275.32L136.98 273.97L137.56 272.66L138.18 271.37L138.85 270.11L139.57 268.88L140.33 267.69L141.14 266.53L141.99 265.41L142.89 264.33L143.83 263.29L144.82 262.29L145.84 261.33L146.91 260.42L148.02 259.55L149.17 258.74L150.36 257.97L151.58 257.25L152.85 256.59L154.16 255.98L155.5 255.43L156.18 255.18L156.86 254.94L157.54 254.72L158.23 254.52L158.92 254.33L159.61 254.15L160.31 254L161.01 253.86L161.71 253.73L162.41 253.62L163.11 253.53L163.82 253.45L164.53 253.39L165.24 253.35L165.95 253.32L166.66 253.3L167.37 253.31L168.08 253.32ZM332.24 221.27L333 221.32L333.76 221.38L334.52 221.46L335.27 221.56L336.02 221.68L336.78 221.81L337.53 221.96L338.27 222.13L339.02 222.31L339.76 222.51L340.5 222.73L341.24 222.97L341.97 223.22L342.7 223.49L343.41 223.77L344.12 224.07L344.82 224.38L345.51 224.71L346.19 225.06L346.86 225.42L347.53 225.79L348.18 226.18L348.83 226.58L349.46 227L350.09 227.43L350.7 227.87L351.31 228.33L351.91 228.8L352.49 229.29L353.07 229.79L353.64 230.3L354.19 230.83L354.74 231.36L355.27 231.92L355.79 232.48L356.31 233.06L356.81 233.65L357.3 234.25L357.77 234.87L358.24 235.49L358.7 236.13L359.14 236.79L359.57 237.45L359.99 238.12L360.4 238.81L360.79 239.51L361.17 240.22L361.54 240.94L361.9 241.67L362.24 242.41L362.57 243.16L362.89 243.93L363.18 244.67L363.46 245.41L363.72 246.16L363.97 246.91L364.2 247.67L364.42 248.43L364.63 249.19L364.82 249.96L365 250.74L365.17 251.52L365.32 252.3L365.45 253.08L365.57 253.87L365.68 254.66L365.78 255.46L365.86 256.25L365.92 257.05L365.97 257.85L366.01 258.66L366.04 259.46L366.04 260.27L366.04 261.08L366.02 261.88L365.99 262.69L365.94 263.51L365.88 264.32L365.81 265.13L365.72 265.94L365.61 266.75L365.5 267.56L365.37 268.38L365.22 269.19L365.06 270L364.89 270.81L364.7 271.62L364.5 272.42L364.28 273.23L364.05 274.03L363.81 274.83L363.55 275.63L363.07 277.01L362.55 278.36L362 279.69L361.41 280.99L360.79 282.26L360.14 283.51L359.45 284.72L358.74 285.92L357.99 287.08L357.22 288.21L356.41 289.32L355.58 290.39L354.72 291.43L353.84 292.45L352.93 293.43L351.99 294.38L351.04 295.29L350.06 296.18L349.06 297.03L348.04 297.84L347 298.62L345.94 299.37L344.87 300.08L343.77 300.75L342.67 301.39L341.54 301.99L340.41 302.55L339.25 303.08L338.09 303.56L336.92 304L335.73 304.41L334.54 304.78L333.33 305.1L332.12 305.38L330.9 305.62L329.68 305.82L328.45 305.97L327.22 306.09L325.98 306.15L324.74 306.18L324.48 306.17L324.21 306.17L323.94 306.17L323.68 306.16L323.41 306.15L323.15 306.14L322.88 306.12L322.61 306.11L322.35 306.09L322.08 306.07L321.82 306.05L321.55 306.02L321.28 306L321.02 305.97L320.75 305.94L320.49 305.91L320.22 305.87L319.96 305.83L319.69 305.8L319.42 305.75L319.16 305.71L318.89 305.66L318.63 305.62L318.36 305.57L318.1 305.51L317.83 305.46L317.57 305.4L317.31 305.34L317.04 305.28L316.78 305.22L316.51 305.15L316.25 305.09L315.99 305.02L315.72 304.94L315.46 304.87L315.2 304.79L314.94 304.71L314.67 304.63L314.41 304.55L314.15 304.46L314.15 304.46L312.68 303.94L311.26 303.35L309.87 302.71L308.52 302L307.21 301.24L305.94 300.42L304.71 299.54L303.52 298.62L302.38 297.65L301.28 296.62L300.22 295.55L299.2 294.44L298.24 293.28L297.31 292.08L296.44 290.84L295.61 289.56L294.83 288.24L294.1 286.89L293.42 285.51L292.79 284.09L292.21 282.65L291.68 281.17L291.2 279.68L290.78 278.15L290.41 276.6L290.1 275.04L289.84 273.45L289.64 271.84L289.49 270.22L289.4 268.58L289.37 266.93L289.4 265.27L289.49 263.6L289.64 261.93L289.85 260.24L290.12 258.56L290.46 256.87L290.86 255.18L291.32 253.49L291.85 251.8L292.12 251.01L292.4 250.22L292.7 249.43L293.01 248.66L293.33 247.89L293.66 247.13L294.01 246.38L294.37 245.64L294.73 244.9L295.12 244.17L295.51 243.45L295.91 242.74L296.33 242.03L296.75 241.34L297.19 240.65L297.64 239.97L298.1 239.31L298.56 238.65L299.04 238L299.53 237.36L300.04 236.73L300.55 236.11L301.07 235.5L301.6 234.89L302.14 234.3L302.69 233.72L303.25 233.16L303.82 232.6L304.4 232.05L304.99 231.51L305.58 230.99L306.19 230.48L306.8 229.97L307.43 229.48L308.06 229L308.7 228.54L309.35 228.08L310.01 227.64L310.67 227.21L311.35 226.8L312.06 226.37L312.78 225.97L313.5 225.58L314.22 225.21L314.95 224.85L315.68 224.51L316.41 224.19L317.15 223.88L317.89 223.59L318.63 223.32L319.38 223.06L320.12 222.83L320.87 222.6L321.62 222.4L322.38 222.21L323.13 222.03L323.89 221.88L324.64 221.74L325.4 221.62L326.16 221.51L326.92 221.42L327.68 221.35L328.44 221.29L329.2 221.26L329.96 221.23L330.72 221.23L331.48 221.24L332.24 221.27ZM246.48 199.37L248.14 199.56L249.78 199.83L251.4 200.17L252.99 200.58L254.56 201.06L256.1 201.61L257.62 202.22L259.11 202.9L260.57 203.65L262 204.45L263.4 205.32L264.77 206.25L266.1 207.23L267.39 208.27L268.65 209.36L269.87 210.51L271.05 211.71L272.19 212.96L273.28 214.26L274.33 215.6L275.34 216.99L276.3 218.42L277.21 219.9L278.08 221.41L278.89 222.97L279.65 224.56L280.36 226.19L281.01 227.86L281.61 229.56L282.15 231.29L282.63 233.05L283.05 234.84L283.41 236.65L283.71 238.49L283.94 240.36L284.11 242.25L284.21 244.16L284.25 246.09L284.21 248.02L284.11 249.93L283.94 251.81L283.71 253.68L283.41 255.52L283.05 257.34L282.63 259.12L282.15 260.88L281.61 262.61L281.01 264.31L280.36 265.98L279.65 267.61L278.89 269.2L278.08 270.75L277.21 272.27L276.3 273.75L275.34 275.18L274.33 276.57L273.28 277.91L272.19 279.21L271.05 280.46L269.87 281.66L268.65 282.8L267.39 283.9L266.1 284.94L264.77 285.92L263.4 286.85L262 287.71L260.57 288.52L259.11 289.26L257.62 289.94L256.1 290.56L254.56 291.11L252.99 291.59L251.4 292L249.78 292.34L248.14 292.6L246.48 292.79L244.81 292.91L243.12 292.95L241.42 292.91L239.75 292.79L238.09 292.6L236.45 292.34L234.84 292L233.25 291.59L231.68 291.11L230.13 290.56L228.61 289.94L227.12 289.26L225.66 288.52L224.23 287.71L222.84 286.85L221.47 285.92L220.14 284.94L218.84 283.9L217.59 282.8L216.37 281.66L215.19 280.46L214.05 279.21L212.95 277.91L211.9 276.57L210.9 275.18L209.94 273.75L209.02 272.27L208.16 270.75L207.35 269.2L206.59 267.61L205.88 265.98L205.23 264.31L204.63 262.61L204.09 260.88L203.61 259.12L203.19 257.34L202.83 255.52L202.53 253.68L202.3 251.81L202.13 249.93L202.03 248.02L201.99 246.09L202.03 244.16L202.13 242.25L202.3 240.36L202.53 238.49L202.83 236.65L203.19 234.84L203.61 233.05L204.09 231.29L204.63 229.56L205.23 227.86L205.88 226.19L206.59 224.56L207.35 222.97L208.16 221.41L209.02 219.9L209.94 218.42L210.9 216.99L211.9 215.6L212.95 214.26L214.05 212.96L215.19 211.71L216.37 210.51L217.59 209.36L218.84 208.27L220.14 207.23L221.47 206.25L222.84 205.32L224.23 204.45L225.66 203.65L227.12 202.9L228.61 202.22L230.13 201.61L231.68 201.06L233.25 200.58L234.84 200.17L236.45 199.83L238.09 199.56L239.75 199.37L241.42 199.25L243.12 199.21L244.81 199.25L246.48 199.37Z" id="d1LZEZm3Dv"></path></defs><g><g><use xlink:href="#c1W8ekNV5" opacity="1" fill="#000000" fill-opacity="1"></use><g><use xlink:href="#c1W8ekNV5" opacity="1" fill-opacity="0" stroke="#000000" stroke-width="1" stroke-opacity="0"></use></g></g><g><use xlink:href="#aofpgYCDV" opacity="1" fill="#000000" fill-opacity="1"></use></g><g><use xlink:href="#d1LZEZm3Dv" opacity="1" fill="#ffffff" fill-opacity="1"></use><g><use xlink:href="#d1LZEZm3Dv" opacity="1" fill-opacity="0" stroke="#000000" stroke-width="1" stroke-opacity="0"></use></g></g></g></svg>